<svg width="20" height="15" viewBox="0 0 20 15" fill="none" xmlns="http://www.w3.org/2000/svg">
    <g transform="translate(20,0) scale(-1,1)">
        <path d="M19.5363 7.84739L13.2363 14.1474C13.0666 14.3113 12.8392 14.402 12.6032 14.4C12.3673 14.3979 12.1415 14.3033 11.9747 14.1364C11.8078 13.9696 11.7131 13.7438 11.7111 13.5078C11.709 13.2719 11.7998 13.0445 11.9637 12.8748L16.7274 8.11109L0.9 8.11109C0.661305 8.11109 0.432387 8.01627 0.263604 7.84749C0.0948211 7.67871 0 7.44979 0 7.2111C0 6.9724 0.0948211 6.74348 0.263604 6.5747C0.432387 6.40592 0.661305 6.3111 0.9 6.3111L16.7274 6.3111L11.9637 1.54741C11.8777 1.46439 11.8092 1.36507 11.762 1.25527C11.7148 1.14547 11.69 1.02737 11.689 0.907868C11.6879 0.788367 11.7107 0.669857 11.756 0.55925C11.8012 0.448644 11.868 0.348157 11.9525 0.263653C12.037 0.17915 12.1375 0.112321 12.2481 0.0670691C12.3587 0.0218163 12.4773 -0.000955582 12.5968 8.29697e-05C12.7163 0.00112152 12.8344 0.0259504 12.9442 0.0731182C13.054 0.120286 13.1533 0.188848 13.2363 0.274808L19.5363 6.5748C19.705 6.74357 19.7998 6.97245 19.7998 7.2111C19.7998 7.44974 19.705 7.67862 19.5363 7.84739Z" fill="#FFFFFF"/>
    </g>
</svg>